<mxfile host="65bd71144e">
    <diagram id="dkcMai7t39sFDvpnFY6x" name="Seite-1">
        <mxGraphModel dx="1624" dy="829" grid="1" gridSize="10" guides="1" tooltips="1" connect="1" arrows="1" fold="1" page="1" pageScale="1" pageWidth="827" pageHeight="1169" math="0" shadow="0">
            <root>
                <mxCell id="0"/>
                <mxCell id="1" parent="0"/>
                <mxCell id="ZhQjGAfnxnsfdFdQOyMX-1" value="Start" style="ellipse;whiteSpace=wrap;html=1;" vertex="1" parent="1">
                    <mxGeometry x="360" y="60" width="100" height="40" as="geometry"/>
                </mxCell>
                <mxCell id="ZhQjGAfnxnsfdFdQOyMX-2" value="Ende" style="ellipse;whiteSpace=wrap;html=1;" vertex="1" parent="1">
                    <mxGeometry x="360" y="820" width="100" height="40" as="geometry"/>
                </mxCell>
                <mxCell id="ZhQjGAfnxnsfdFdQOyMX-3" value="&lt;font style=&quot;font-size: 24px;&quot;&gt;Profil.loeschen()&lt;/font&gt;" style="text;html=1;strokeColor=none;fillColor=none;align=center;verticalAlign=middle;whiteSpace=wrap;rounded=0;" vertex="1" parent="1">
                    <mxGeometry x="380" width="60" height="30" as="geometry"/>
                </mxCell>
            </root>
        </mxGraphModel>
    </diagram>
</mxfile>